<mxfile host="65bd71144e">
    <diagram id="_BVECQvLojmbbV3W4aIb" name="ページ1">
        <mxGraphModel dx="526" dy="381" grid="1" gridSize="10" guides="1" tooltips="1" connect="1" arrows="1" fold="1" page="1" pageScale="1" pageWidth="827" pageHeight="1169" math="0" shadow="0">
            <root>
                <mxCell id="0"/>
                <mxCell id="1" parent="0"/>
                <mxCell id="2" value="" style="rounded=0;whiteSpace=wrap;html=1;" vertex="1" parent="1">
                    <mxGeometry x="10" y="50" width="500" height="310" as="geometry"/>
                </mxCell>
                <mxCell id="3" value="" style="rounded=0;whiteSpace=wrap;html=1;" vertex="1" parent="1">
                    <mxGeometry x="10" y="70" width="70" height="290" as="geometry"/>
                </mxCell>
                <mxCell id="4" value="Health Convenience" style="rounded=0;whiteSpace=wrap;html=1;" vertex="1" parent="1">
                    <mxGeometry x="80" y="50" width="430" height="20" as="geometry"/>
                </mxCell>
                <mxCell id="5" value="Home" style="rounded=0;whiteSpace=wrap;html=1;" vertex="1" parent="1">
                    <mxGeometry x="10" y="70" width="70" height="20" as="geometry"/>
                </mxCell>
                <mxCell id="6" value="カレンダー" style="rounded=0;whiteSpace=wrap;html=1;" vertex="1" parent="1">
                    <mxGeometry x="90" y="180" width="210" height="155" as="geometry"/>
                </mxCell>
                <mxCell id="7" value="" style="rounded=0;whiteSpace=wrap;html=1;" vertex="1" parent="1">
                    <mxGeometry x="320" y="70" width="190" height="290" as="geometry"/>
                </mxCell>
                <mxCell id="8" value="2025-1-1" style="rounded=1;whiteSpace=wrap;html=1;" vertex="1" parent="1">
                    <mxGeometry x="325" y="80" width="55" height="20" as="geometry"/>
                </mxCell>
                <mxCell id="9" value="総カルシウム" style="rounded=1;whiteSpace=wrap;html=1;" vertex="1" parent="1">
                    <mxGeometry x="450" y="160" width="50" height="40" as="geometry"/>
                </mxCell>
                <mxCell id="11" value="総タンパク質" style="rounded=1;whiteSpace=wrap;html=1;" vertex="1" parent="1">
                    <mxGeometry x="325" y="110" width="50" height="40" as="geometry"/>
                </mxCell>
                <mxCell id="12" value="総エネルギー" style="rounded=1;whiteSpace=wrap;html=1;" vertex="1" parent="1">
                    <mxGeometry x="389" y="110" width="50" height="40" as="geometry"/>
                </mxCell>
                <mxCell id="13" value="総脂質" style="rounded=1;whiteSpace=wrap;html=1;" vertex="1" parent="1">
                    <mxGeometry x="450" y="110" width="50" height="40" as="geometry"/>
                </mxCell>
                <mxCell id="14" value="総炭水化物" style="rounded=1;whiteSpace=wrap;html=1;" vertex="1" parent="1">
                    <mxGeometry x="325" y="160" width="50" height="40" as="geometry"/>
                </mxCell>
                <mxCell id="16" value="総食塩" style="rounded=1;whiteSpace=wrap;html=1;" vertex="1" parent="1">
                    <mxGeometry x="389" y="160" width="50" height="40" as="geometry"/>
                </mxCell>
                <mxCell id="18" value="コンビニ食材特化の健康アプリ" style="text;html=1;align=center;verticalAlign=middle;resizable=0;points=[];autosize=1;strokeColor=none;fillColor=none;" vertex="1" parent="1">
                    <mxGeometry x="135" y="15" width="190" height="30" as="geometry"/>
                </mxCell>
                <mxCell id="21" value="購入品の内訳追加" style="rounded=1;whiteSpace=wrap;html=1;" vertex="1" parent="1">
                    <mxGeometry x="325" y="210" width="115" height="20" as="geometry"/>
                </mxCell>
                <mxCell id="22" value="パスタ　　￥500" style="rounded=1;whiteSpace=wrap;html=1;" vertex="1" parent="1">
                    <mxGeometry x="325" y="237.5" width="175" height="32.5" as="geometry"/>
                </mxCell>
                <mxCell id="23" value="パスタ　　￥500" style="rounded=1;whiteSpace=wrap;html=1;" vertex="1" parent="1">
                    <mxGeometry x="325" y="280" width="175" height="32.5" as="geometry"/>
                </mxCell>
                <mxCell id="24" value="パスタ　　￥500" style="rounded=1;whiteSpace=wrap;html=1;" vertex="1" parent="1">
                    <mxGeometry x="325" y="317.5" width="175" height="32.5" as="geometry"/>
                </mxCell>
                <mxCell id="25" value="2025年1月" style="rounded=1;whiteSpace=wrap;html=1;" vertex="1" parent="1">
                    <mxGeometry x="90" y="160" width="60" height="20" as="geometry"/>
                </mxCell>
                <mxCell id="26" value="カレンダー" style="rounded=0;whiteSpace=wrap;html=1;" vertex="1" parent="1">
                    <mxGeometry x="90" y="195" width="210" height="155" as="geometry"/>
                </mxCell>
                <mxCell id="27" value="今日" style="rounded=1;whiteSpace=wrap;html=1;" vertex="1" parent="1">
                    <mxGeometry x="210" y="160" width="30" height="20" as="geometry"/>
                </mxCell>
                <mxCell id="28" value="&amp;lt;" style="rounded=0;whiteSpace=wrap;html=1;" vertex="1" parent="1">
                    <mxGeometry x="240" y="160" width="25" height="20" as="geometry"/>
                </mxCell>
                <mxCell id="29" value="&amp;gt;" style="rounded=0;whiteSpace=wrap;html=1;" vertex="1" parent="1">
                    <mxGeometry x="265" y="160" width="25" height="20" as="geometry"/>
                </mxCell>
                <mxCell id="30" value="大樹さん(30歳男性)" style="rounded=1;whiteSpace=wrap;html=1;" vertex="1" parent="1">
                    <mxGeometry x="90" y="80" width="220" height="20" as="geometry"/>
                </mxCell>
                <mxCell id="34" value="総タンパク質" style="rounded=1;whiteSpace=wrap;html=1;" vertex="1" parent="1">
                    <mxGeometry x="85" y="110" width="80" height="20" as="geometry"/>
                </mxCell>
                <mxCell id="35" value="総エネルギー" style="rounded=1;whiteSpace=wrap;html=1;" vertex="1" parent="1">
                    <mxGeometry x="171" y="110" width="74" height="20" as="geometry"/>
                </mxCell>
                <mxCell id="36" value="総脂質" style="rounded=1;whiteSpace=wrap;html=1;" vertex="1" parent="1">
                    <mxGeometry x="255" y="110" width="65" height="20" as="geometry"/>
                </mxCell>
            </root>
        </mxGraphModel>
    </diagram>
</mxfile>